<?xml version="1.0" standalone="no"?><!DOCTYPE svg PUBLIC "-//W3C//DTD SVG 1.1//EN" "http://www.w3.org/Graphics/SVG/1.1/DTD/svg11.dtd"><svg t="1660310874608" class="icon" viewBox="0 0 1024 1024" version="1.1" xmlns="http://www.w3.org/2000/svg" p-id="2365" xmlns:xlink="http://www.w3.org/1999/xlink" width="200" height="200"><defs><style type="text/css">@font-face { font-family: "feedback-iconfont"; src: url("//at.alicdn.com/t/font_1031158_u69w8yhxdu.woff2?t=1630033759944") format("woff2"), url("//at.alicdn.com/t/font_1031158_u69w8yhxdu.woff?t=1630033759944") format("woff"), url("//at.alicdn.com/t/font_1031158_u69w8yhxdu.ttf?t=1630033759944") format("truetype"); }
</style></defs><path d="M817.4 64.1H206.5c-33.3 0-60.3 26.6-61 59.8h4.2c-1.4 0-2.7 0.1-4.2 0.2v774.7c0 33.7 27.4 61.1 61.1 61.1h610.8c33.6 0 61-27.4 61-61.1V124c-0.7-33.3-27.8-59.9-61-59.9zM530 726c0 17.6-14.4 32-32 32H352c-17.6 0-32-14.4-32-32s14.4-32 32-32h146c17.6 0 32 14.4 32 32z m90-214c0 17.6-14.4 32-32 32H352c-17.6 0-32-14.4-32-32s14.4-32 32-32h236c17.6 0 32 14.4 32 32z m84-214c0 17.6-14.4 32-32 32H352c-17.6 0-32-14.4-32-32s14.4-32 32-32h320c17.6 0 32 14.4 32 32z" fill="#dbdbdb" p-id="2366"></path></svg>