<?xml version="1.0" standalone="no"?><!DOCTYPE svg PUBLIC "-//W3C//DTD SVG 1.1//EN" "http://www.w3.org/Graphics/SVG/1.1/DTD/svg11.dtd"><svg t="1660384811704" class="icon" viewBox="0 0 1024 1024" version="1.1" xmlns="http://www.w3.org/2000/svg" p-id="3909" xmlns:xlink="http://www.w3.org/1999/xlink" width="200" height="200"><defs><style type="text/css">@font-face { font-family: "feedback-iconfont"; src: url("//at.alicdn.com/t/font_1031158_u69w8yhxdu.woff2?t=1630033759944") format("woff2"), url("//at.alicdn.com/t/font_1031158_u69w8yhxdu.woff?t=1630033759944") format("woff"), url("//at.alicdn.com/t/font_1031158_u69w8yhxdu.ttf?t=1630033759944") format("truetype"); }
</style></defs><path d="M512 0C229.2 0 0 229.2 0 512s229.2 512 512 512 512-229.2 512-512S794.8 0 512 0z m-32 769V353c0-17.7 14.3-32 32-32s32 14.3 32 32v416c0 8.8-3.6 16.8-9.4 22.6-5.8 5.8-13.8 9.4-22.6 9.4-17.7 0-32-14.3-32-32z m64-543.5c0 8.8-3.6 16.8-9.4 22.6-5.8 5.8-13.8 9.4-22.6 9.4-17.7 0-32-14.3-32-32v-1c0-17.7 14.3-32 32-32s32 14.3 32 32v1z" p-id="3910" fill="#dbdbdb"></path></svg>