<?xml version="1.0" standalone="no"?><!DOCTYPE svg PUBLIC "-//W3C//DTD SVG 1.1//EN" "http://www.w3.org/Graphics/SVG/1.1/DTD/svg11.dtd"><svg t="1660109124627" class="icon" viewBox="0 0 1024 1024" version="1.1" xmlns="http://www.w3.org/2000/svg" p-id="2537" xmlns:xlink="http://www.w3.org/1999/xlink" width="200" height="200"><defs><style type="text/css">@font-face { font-family: "feedback-iconfont"; src: url("//at.alicdn.com/t/font_1031158_u69w8yhxdu.woff2?t=1630033759944") format("woff2"), url("//at.alicdn.com/t/font_1031158_u69w8yhxdu.woff?t=1630033759944") format("woff"), url("//at.alicdn.com/t/font_1031158_u69w8yhxdu.ttf?t=1630033759944") format("truetype"); }
</style></defs><path d="M64 832c0-247.424 200.576-448 448-448s448 200.576 448 448H64z" fill="#e6e6e6" p-id="2538"></path><path d="M64 864h896a32 32 0 0 0 32-32c0-253.856-198.272-461.76-448-478.4V320a32 32 0 0 0-64 0v33.6C230.272 370.24 32 578.176 32 832a32 32 0 0 0 32 32z m448-448c218.624 0 398.4 169.504 414.784 384H97.216C113.6 585.504 293.376 416 512 416zM992 896H32a32 32 0 0 0 0 64h960a32 32 0 0 0 0-64z" fill="#e6e6e6" p-id="2539"></path><path d="M400 512A176.192 176.192 0 0 0 224 688a16 16 0 1 0 32 0c0-79.392 64.608-144 144-144a16 16 0 1 0 0-32zM350.56 194.656c2.688 5.056 5.408 10.112 7.36 15.456 2.4 6.528 3.616 15.2-0.16 20.032a16 16 0 1 0 25.216 19.712c10.24-13.12 12.064-31.616 4.992-50.784a162.848 162.848 0 0 0-9.12-19.36c-2.496-4.8-5.056-9.536-7.008-14.56-9.824-25.248-0.576-56.288 21.504-72.16a16 16 0 1 0-18.688-25.984c-33.568 24.16-47.584 71.36-32.64 109.76 2.4 6.144 5.44 12 8.544 17.888zM446.56 194.656c2.688 5.056 5.408 10.112 7.36 15.456 2.4 6.528 3.616 15.2-0.16 20.032a16 16 0 1 0 25.216 19.712c10.24-13.12 12.064-31.616 4.992-50.784a162.848 162.848 0 0 0-9.12-19.36c-2.496-4.8-5.056-9.536-7.008-14.56-9.824-25.248-0.576-56.288 21.504-72.16a16 16 0 1 0-18.688-25.984c-33.568 24.16-47.584 71.36-32.64 109.76 2.4 6.144 5.44 12 8.544 17.888zM542.56 194.656c2.688 5.056 5.408 10.112 7.36 15.456 2.4 6.528 3.616 15.2-0.16 20.032a16 16 0 1 0 25.216 19.712c10.24-13.12 12.064-31.616 4.992-50.784a162.848 162.848 0 0 0-9.12-19.36c-2.496-4.8-5.056-9.536-7.008-14.56-9.824-25.248-0.576-56.288 21.504-72.16a16 16 0 1 0-18.688-25.984c-33.568 24.16-47.584 71.36-32.64 109.76 2.4 6.144 5.44 12 8.544 17.888zM638.56 194.656c2.688 5.056 5.408 10.112 7.36 15.456 2.4 6.528 3.616 15.2-0.16 20.032a16 16 0 1 0 25.216 19.712c10.24-13.12 12.064-31.616 4.992-50.784a162.848 162.848 0 0 0-9.12-19.36c-2.496-4.8-5.056-9.536-7.008-14.56-9.824-25.248-0.576-56.288 21.504-72.16a16 16 0 1 0-18.688-25.984c-33.568 24.16-47.584 71.36-32.64 109.76 2.4 6.144 5.44 12 8.544 17.888z" fill="#e6e6e6" p-id="2540"></path></svg>